<?xml version="1.0" encoding="utf-8"?>
<!-- Designed by Vexels.com - 2016 All Rights Reserved - https://vexels.com/terms-and-conditions/  -->

<svg version="1.1" id="Layer_1" xmlns="http://www.w3.org/2000/svg" xmlns:xlink="http://www.w3.org/1999/xlink" x="0px" y="0px"
	 width="1200px" height="1200px" viewBox="0 0 1200 1200" enable-background="new 0 0 1200 1200" xml:space="preserve">
<g>
	<g>
		<path fill="#DE8C2E" d="M1150,600c0-300.983-246.307-544.901-549.998-544.901C296.187,55.099,50,299.017,50,600
			c0,300.958,246.187,544.901,550.002,544.901C903.693,1144.901,1150,900.958,1150,600z"/>
		<g>
			<path fill="#FFFFFF" d="M778.796,742.291c0,39.725-12.102,71.735-36.282,96.255c-24.18,24.5-61.971,38.891-113.209,43.578v63.925
				c0,4.003-1.734,7.66-5.077,10.783c-3.318,3.148-7.611,4.687-12.807,4.687h-43.503c-5.931,0-10.908-1.394-15.006-4.272
				c-4.097-2.903-6.126-6.686-6.126-11.198v-63.925c-45.162-5.172-80.759-19.618-107.038-43.188
				c-26.104-23.64-39.33-53.552-39.33-89.859v-39.695c0-4.517,2.318-8.64,6.616-12.057c4.292-3.363,9.539-5.147,15.271-5.147h87.35
				c7.975,0,14.881,2.004,20.762,6.051c5.711,4.003,8.66,9.174,8.66,15.565c0,8.03-0.17,16.445-0.585,25.524
				c-0.315,8.76,0.954,17.054,3.978,24.495c2.878,7.515,7.66,13.811,14.421,19.078c6.611,5.152,17.369,7.785,32.205,7.785
				c13.372,0,24.695-2.903,33.964-8.66c9.249-5.806,13.856-14.201,13.856-25.154c0-12.057-2.558-23.086-7.61-33.134
				c-5.197-10.054-11.588-19.618-19.298-28.522c-7.76-8.909-16.35-17.569-25.839-25.889c-9.494-8.395-19.033-16.59-28.522-24.595
				c-10.349-8.685-20.302-17.469-29.841-26.399c-9.489-8.929-18.983-17.934-28.472-27.253c-12.592-12.052-24.23-23.74-35.283-34.913
				c-10.978-11.203-20.662-22.866-29.107-34.943c-8.395-12.147-15.275-24.859-20.347-38.426c-5.147-13.542-7.71-28.377-7.71-44.457
				c0-17.859,2.878-34.913,8.76-51.018c5.831-16.05,14.686-30.641,26.738-43.598c12.053-12.907,26.888-23.84,44.772-32.745
				c17.739-8.904,38.331-15.201,61.632-18.593v-69.072c0-3.413,1.614-6.441,5.077-9.074c3.243-2.638,7.171-3.903,11.638-3.903
				h52.337c4.462,0,7.805,1.509,10.004,4.292c2.269,2.878,3.463,5.756,3.463,8.685v68.173c49.09,4.022,85.152,16.954,108.233,38.841
				c23.131,21.986,34.649,52.143,34.649,90.644v40.625c0,4.632-2.149,8.54-6.591,11.688c-4.412,3.123-9.539,4.732-15.37,4.732
				h-91.228c-5.876,0-11.173-1.854-16.005-5.661c-4.707-3.733-7.126-7.88-7.126-12.417c0-7.031,0-14.956,0-23.74
				c0-8.929-1.094-17.349-3.413-25.134c-2.099-7.78-6.661-14.196-13.321-19.323c-6.611-5.267-16.665-7.805-30.037-7.805
				c-14.051,0-25.594,3.268-34.449,9.929c-8.909,6.541-13.322,15.32-13.322,26.254c0,11.563,3.778,23.131,11.538,34.523
				c7.71,11.588,17.299,22.766,28.742,33.669c11.418,10.933,23.23,21.522,35.378,31.525c12.052,10.199,22.546,19.253,31.475,27.278
				c17.714,16.715,34.234,31.765,49.654,45.332c15.515,13.592,29.302,27.548,41.474,41.844
				c12.152,14.446,21.691,30.306,28.672,47.455C775.333,699.108,778.796,719.211,778.796,742.291z"/>
		</g>
	</g>
</g>
</svg>
