<?xml version="1.0" encoding="UTF-8" standalone="no" ?>
<!DOCTYPE svg PUBLIC "-//W3C//DTD SVG 1.1//EN" "http://www.w3.org/Graphics/SVG/1.1/DTD/svg11.dtd">
<svg xmlns="http://www.w3.org/2000/svg" xmlns:xlink="http://www.w3.org/1999/xlink" version="1.1" width="1080" height="1080" viewBox="0 0 1080 1080" xml:space="preserve">
<desc>Created with Fabric.js 5.2.4</desc>
<defs>
</defs>
<g transform="matrix(1 0 0 1 540 540)" id="a0ac1e66-7ce1-4a9d-a72a-686fe8c42169"  >
<rect style="stroke: none; stroke-width: 1; stroke-dasharray: none; stroke-linecap: butt; stroke-dashoffset: 0; stroke-linejoin: miter; stroke-miterlimit: 4; fill: rgb(255,255,255); fill-rule: nonzero; opacity: 1; visibility: hidden;" vector-effect="non-scaling-stroke"  x="-540" y="-540" rx="0" ry="0" width="1080" height="1080" />
</g>
<g transform="matrix(1 0 0 1 540 540)" id="543a23e4-c3ec-4d65-bcc9-1b16d451c24a"  >
</g>
<g transform="matrix(45 0 0 45 540 540)"  >
<path style="stroke: none; stroke-width: 1; stroke-dasharray: none; stroke-linecap: butt; stroke-dashoffset: 0; stroke-linejoin: miter; stroke-miterlimit: 4; fill: rgb(0,0,0); fill-rule: nonzero; opacity: 1;"  transform=" translate(-12, -12)" d="M 8.603 3.799 C 9.456805505922336 2.8140508930830066 10.69650199464282 2.2487609722622732 11.999999999999998 2.2499999999999996 C 13.357 2.25 14.573 2.85 15.397 3.799 C 16.697457281339673 3.70614428135622 17.974058295504587 4.183136141137108 18.895 5.106 C 19.817475878351974 6.0267805072068334 20.29442472387556 7.302901481036977 20.201999999999998 8.602999999999998 C 21.18657731918527 9.456991223578287 21.751490349430526 10.69666148439426 21.75 12 C 21.751239027737725 13.303498005357179 21.185949106916993 14.543194494077666 20.201 15.397000000000002 C 20.293424723875564 16.69709851896302 19.816475878351977 17.973219492793163 18.894000000000005 18.893999999999995 C 17.973219492793167 19.81647587835197 16.697098518963024 20.293424723875564 15.397000000000002 20.200999999999997 C 14.543194494077666 21.18594910691699 13.303498005357179 21.751239027737725 12 21.75 C 10.696501994642823 21.751239027737725 9.456805505922336 21.185949106916993 8.603 20.201 C 7.302696045393139 20.294116664985275 6.026117820000232 19.817498265224515 5.1049999999999995 18.895 C 4.18225036492288 17.973984761405873 3.705278738115191 16.697437897922097 3.797999999999999 15.397 C 2.813422680814728 14.543008776421711 2.2485096505694755 13.30333851560574 2.2500000000000004 12 C 2.25 10.643 2.85 9.427 3.799 8.603 C 3.7064409018207063 7.302882088780575 4.18340996809792 6.026707012444373 5.106 5.106 C 6.026707012444373 4.18340996809792 7.302882088780575 3.7064409018207067 8.603 3.7990000000000004 Z M 15.61 10.186 C 15.773331039338943 9.96836496694081 15.805972962161587 9.67933728450592 15.695294945598251 9.430756487428148 C 15.584616929034915 9.182175690350377 15.347982709298458 9.013040411981368 15.076958121239842 8.988797708050663 C 14.805933533181227 8.964555004119958 14.543038307460385 9.089008194647283 14.389999999999999 9.314 L 11.153999999999998 13.844000000000001 L 9.53 12.22 C 9.234490245515518 11.944641139570878 8.773990278005257 11.952766124082645 8.48837820104395 12.238378201043952 C 8.202766124082643 12.52399027800526 8.194641139570876 12.98449024551552 8.469999999999999 13.280000000000001 L 10.719999999999999 15.530000000000001 C 10.875824215455447 15.685706685187657 11.092222348223823 15.76503564071653 11.311762910779043 15.746933173277766 C 11.531303473334264 15.728830705839002 11.731784916596059 15.615127469479573 11.86 15.436000000000002 L 15.61 10.186000000000002 Z" stroke-linecap="round" />
</g>
</svg>